<svg xmlns="http://www.w3.org/2000/svg" xmlns:xlink="http://www.w3.org/1999/xlink" viewBox="0 0 499.4 486.9" width="45" height="45" style="align-self: center;">
<defs><radialGradient id="a" cx="-1433.46" cy="-467.39" r="0.64" gradientTransform="translate(782370.61 247046.18) scale(545.67 528.31)" gradientUnits="userSpaceOnUse">
<stop offset="0" stop-color="#423325" stop-opacity="0.98"/>
<stop offset="1" stop-color="#1c0a00"/>
</radialGradient>
</defs>
<title>illustrator</title>
<path d="M20.8,20.8H478.5V466.1H20.8Z" style="fill:url(#a)"/>
<path d="M20.8,20.8H478.5V466.1H20.8ZM0,486.9H499.4V0H0ZM327.1,173.6c0-1.7.6-2.5,2.5-2.5h32.7c1.7,0,2.5.6,2.5,2.5V337.8c0,1.7-.4,2.5-2.5,2.5H330c-2.1,0-2.7-1-2.7-2.7v-164Zm-2.3-47.3c0-13.3,9.4-21.2,21.2-21.2,12.7,0,21.2,8.5,21.2,21.2,0,13.7-8.9,21.2-21.6,21.2C333.6,147.6,324.8,140.1,324.8,126.3ZM231.2,242c-5.8-23.1-19.6-73.4-24.8-97.8H206c-4.4,24.3-15.4,65.5-24.1,97.8Zm-57.8,33.7L157,338.1c-.4,1.7-1,2.1-3.1,2.1H123.3c-2.1,0-2.5-.6-2.1-3.1l59.1-206.8c1-3.7,1.7-7.1,2.1-17.3,0-1.5.6-2.1,1.7-2.1h43.7c1.5,0,2.1.4,2.5,2.1l66.2,224.5c.4,1.7,0,2.7-1.7,2.7H260.3c-1.7,0-2.7-.4-3.1-1.9l-17.1-62.6Z" style="fill:#ff7f18"/>
</svg>