<svg xmlns="http://www.w3.org/2000/svg" viewBox="0 0 256 282.73" width="45" height="45" style="align-self: center;">
<title>jest</title><path d="M240,139.2a26.31,26.31,0,0,0-26.31-26.31c-.94,0-1.86,0-2.77.14L247,6.43H93.43l36.1,106.51c-.53,0-1.07,0-1.6,0a26.32,26.32,0,0,0-8,51.39,115.05,115.05,0,0,1-20.7,26,105.22,105.22,0,0,1-36.87,22.89C46.3,205,38.71,186.6,45.56,170.51c.77-1.82,1.56-3.66,2.32-5.5a26.31,26.31,0,1,0-21.11-4.07c-6.51,14.83-16.09,30.35-19.07,48.34-3.58,21.56,0,44.44,18.63,57.36,43.43,30.1,90.56-18.65,140.26-30.91,18-4.44,37.78-3.73,53.65-12.92a44.93,44.93,0,0,0,22-31.18,46.82,46.82,0,0,0-8.4-35.56A26.21,26.21,0,0,0,240,139.2Zm-85.73.1v-.1a26.3,26.3,0,0,0-12.68-22.51L170.29,58.6l28.77,58.7a26.31,26.31,0,0,0-11.72,21.9c0,.2,0,.38,0,.57l-33.11-.47Z" transform="translate(0)" style="fill:#c63d14"/><path d="M246.4,139.2A32.8,32.8,0,0,0,219.71,107L256,0H84.47l36.34,107.25A32.73,32.73,0,0,0,110.66,167a109.7,109.7,0,0,1-15.83,18.64,99.14,99.14,0,0,1-31.9,20.49C51.28,198.83,46.36,185,51.47,173l.4-.94.75-1.77A32.76,32.76,0,1,0,18.9,162.7c-1.09,2.33-2.24,4.7-3.42,7.12C10,181.14,3.72,194,1.36,208.23c-4.7,28.29,2.87,50.92,21.31,63.69a58,58,0,0,0,34,10.81c21.53,0,43.31-10.82,64.61-21.4,15.34-7.62,31.2-15.5,46.87-19.36,5.83-1.44,11.83-2.3,18.18-3.22,12.59-1.82,25.62-3.7,37.15-10.38a51.36,51.36,0,0,0,25.12-35.64,53.07,53.07,0,0,0-7-36.48,32.58,32.58,0,0,0,4.8-17.05Zm-12.85,0a19.89,19.89,0,1,1-19.89-19.89,19.92,19.92,0,0,1,19.89,19.89Zm4.52-126.35-32,94.52a32.74,32.74,0,0,0-4.05,1.25L170.31,44.05l-31.75,64.19a32.94,32.94,0,0,0-4.23-1.15L102.4,12.85ZM127.93,119.31A19.89,19.89,0,1,1,108,139.2a19.92,19.92,0,0,1,19.89-19.89Zm-86.06.19A19.89,19.89,0,1,1,22,139.39,19.92,19.92,0,0,1,41.87,119.5Zm194,71A38.55,38.55,0,0,1,217,217.25c-9.39,5.44-20.63,7.06-32.54,8.78-6.38.92-13,1.87-19.43,3.46-17,4.2-33.55,12.4-49.51,20.33C83.6,265.69,56,279.39,30,261.36c-19-13.21-18.17-37.64-15.95-51,2.06-12.41,7.62-23.83,13-34.88.93-1.91,1.83-3.79,2.72-5.65a32.32,32.32,0,0,0,8.46,2.13c-5.47,18.07,3.14,37.72,21.21,47l2.47,1.27,2.62-.93A111.4,111.4,0,0,0,103.65,195,121.72,121.72,0,0,0,123,171.58a32.74,32.74,0,0,0,37.65-32.38,32.64,32.64,0,0,0-11-24.44l20.58-41.61,20.79,42.4a32.72,32.72,0,0,0,41.28,50.53,39.92,39.92,0,0,1,3.58,24.45Z" transform="translate(0)" style="fill:#fff"/></svg>