<svg xmlns="http://www.w3.org/2000/svg" xmlns:xlink="http://www.w3.org/1999/xlink" viewBox="0 0 499 486.6" width="45" height="45" style="align-self: center;">
<defs><radialGradient id="a" cx="-1433.46" cy="-468.69" r="0.64" gradientTransform="translate(782370.61 247731.68) scale(545.67 528.31)" gradientUnits="userSpaceOnUse"><stop offset="0" stop-color="#34364e" stop-opacity="0.98"/><stop offset="1" stop-color="#0c0824"/></radialGradient></defs><title>photoshop</title><path d="M20.8,19.8H478.3v445H20.8Z" transform="translate(0 1)" style="fill:url(#a)"/><path d="M20.8,19.8H478.3v445H20.8ZM0,485.6H499V-1H0ZM336.5,198.7c-16.4,0-22,8.3-22,15.2,0,7.5,3.7,12.7,25.8,24.1,32.6,15.8,42.8,31,42.8,53.2,0,33.3-25.4,51.2-59.7,51.2-18.1,0-33.7-3.7-42.6-8.9-1.5-.6-1.7-1.7-1.7-3.3V299.5c0-2.1,1-2.7,2.5-1.7a77.52,77.52,0,0,0,41.8,12.3c16.4,0,23.3-6.9,23.3-16.2,0-7.5-4.8-14.1-25.8-25-29.5-14.1-41.8-28.4-41.8-52.4,0-26.8,21-49.1,57.4-49.1,17.9,0,30.4,2.7,37.2,5.8a4.53,4.53,0,0,1,2.1,4.2v28.5c0,1.7-1,2.7-3.1,2.1-9.2-5.8-22.7-9.3-36.2-9.3ZM157.7,223.4c4.8.4,8.5.4,16.8.4,24.3,0,47.2-8.5,47.2-41.6,0-26.4-16.4-39.7-44.1-39.7-8.3,0-16.2.4-20,.6l.1,80.3ZM120.6,113c0-1.5,2.9-2.5,4.6-2.5,13.3-.6,33.1-1,53.6-1,57.6,0,80.1,31.6,80.1,71.9,0,52.8-38.3,75.5-85.3,75.5-7.9,0-10.6-.4-16.2-.4v79.8c0,1.7-.6,2.5-2.5,2.5H123.1c-1.7,0-2.5-.6-2.5-2.5V113Z" transform="translate(0 1)" style="fill:#31c5f0"/>
</svg>