<svg xmlns="http://www.w3.org/2000/svg" viewBox="0 0 2499.97 879" width="90" height="45" style="align-self: center;">
<title>rails</title>
<path d="M2176,764.7V879h206.49c42.31,0,114.93-30.94,117.46-117.45V717.34c0-73.88-60.62-117.45-117.46-117.45H2279.6v-53h204V431.92H2287.81c-50.51,0-118.08,41.68-118.08,119.35v39.78c0,77.67,66.93,117.45,118.08,117.45,142.08.64-34.1,0,97.25,0v55.57M1069.72,736.92s110.5-9.47,110.5-152.18-133.87-156-133.87-156H805.13V879H926.37V770.39L1031.2,879h179.33L1069.72,736.92ZM1023,644.73H926.37V541.8h97.25s27.15,10.1,27.15,51.15S1023,644.73,1023,644.73Zm456.55-212.81H1356.4c-87.77,0-117.45,79.57-117.45,117.46V879h123.14V800.07h115.55V879H1597V549.38c0-96-87.14-117.46-117.45-117.46Zm-1.9,240.59H1361.45V563.27s0-24.63,38.52-24.63h42.31c34.1,0,34.73,24.63,34.73,24.63V672.51Zm175.55-240.59h128.19V879H1653.19Zm308.16,331.52V431.92H1833.79V879h299.95V763.44Z" transform="translate(-0.01 0)" style="fill:#c00"/>
<path d="M44.22,879H543.07S447.72,443.92,763.46,267.74c68.83-33.47,287.94-158.5,646.62,106.72,11.36-9.47,22.1-17,22.1-17S1103.82,29.68,738.2,66.3C554.44,82.72,328.38,250.06,195.77,471.07S44.22,879,44.22,879Z" transform="translate(-0.01 0)" style="fill:#c00"/>
<path d="M44.22,879H543.07S447.72,443.92,763.46,267.74c68.83-33.47,287.94-158.5,646.62,106.72,11.36-9.47,22.1-17,22.1-17S1103.82,29.68,738.2,66.3C554.44,82.72,328.38,250.06,195.77,471.07S44.22,879,44.22,879Z" transform="translate(-0.01 0)" style="fill:#c00"/>
<path d="M44.22,879H543.07S447.72,443.92,763.46,267.74c68.83-33.47,287.94-158.5,646.62,106.72,11.36-9.47,22.1-17,22.1-17S1103.82,29.68,738.2,66.3C553.81,82.72,327.74,250.06,195.14,471.07S44.22,879,44.22,879ZM1083.61,101.67l2.52-42.31c-5.68-3.16-21.47-10.74-61.25-22.1l-2.52,41.67C1043.2,85.88,1063.4,93.46,1083.61,101.67Z" transform="translate(-0.01 0)" style="fill:#c00"/>
<path d="M1023.62,235.54l-2.53,39.78a352.08,352.08,0,0,1,62.52,7.58l2.52-39.15A446.65,446.65,0,0,0,1023.62,235.54ZM790,38.52h6.31L783.66,0A503.09,503.09,0,0,0,723,3.79l12,37.26A531.46,531.46,0,0,1,790,38.52ZM820.29,270.9l14.52,43.57a399.18,399.18,0,0,1,54.94-22.1l-13.89-41.68a458,458,0,0,0-55.57,20.21ZM533.6,104.82,505.19,61.25c-15.79,8.21-32.21,17-49.26,27.16L485,132.61c16.42-10.11,32.2-19.58,48.62-27.79ZM663.05,389l30.31,45.47c10.74-15.79,23.37-30.31,37.26-44.84L702.2,346.67A350.9,350.9,0,0,0,663.05,389ZM571.49,592.31l51.15,40.42a503.88,503.88,0,0,1,13.26-73.88l-45.47-36c-8.2,23.37-13.89,46.73-18.94,69.46ZM294.91,292.37l-44.84-39.15c-16.41,15.78-32.2,31.57-46.72,47.36L252,342.25a638.78,638.78,0,0,1,42.94-49.88ZM104.21,574.63,31.59,548.11C19.59,575.27,6.33,606.84,0,623.89l72.62,26.52C80.84,628.94,94.1,598,104.21,574.63ZM562,752.71a640.33,640.33,0,0,0,7.58,79.56l75.77,27.15C639.69,834.8,634,807,630.22,777.33Z" transform="translate(-0.01 0)" style="fill:#c00"/>
</svg>