<svg xmlns="http://www.w3.org/2000/svg" viewBox="0 0 254.43 228.75" width="45" height="45" style="align-self: center;" >
<title>react</title>
<path d="M.75,114.75C.75,134,19.52,151.9,49.1,162c-5.91,29.74-1.06,53.71,15.13,63.05,16.65,9.6,41.45,2.95,65-17.62,22.95,19.74,46.13,27.51,62.31,18.15,16.63-9.63,21.69-35.22,15.62-65.89,30.81-10.19,48-25.48,48-44.95,0-18.77-18.79-35-48-45,6.53-31.94,1-55.32-15.87-65-16.26-9.37-39.72-1.2-63,19.06C104.12,2.2,80.9-4.36,64.05,5.39,47.81,14.79,43.17,39.2,49.1,69.49,20.52,79.45.75,96.06.75,114.75Z" transform="translate(-0.75 -0.78)" style="fill:#fff"/>
<path d="M201,79.67c-2.34-.8-4.77-1.57-7.27-2.29.41-1.68.79-3.33,1.12-5,5.51-26.73,1.91-48.26-10.38-55.35-11.79-6.8-31.07.29-50.54,17.24-1.87,1.63-3.75,3.35-5.62,5.16q-1.88-1.8-3.75-3.46c-20.4-18.12-40.86-25.75-53.14-18.64-11.77,6.82-15.26,27.06-10.3,52.39.47,2.44,1,4.94,1.67,7.48q-4.35,1.23-8.37,2.63c-23.92,8.34-39.2,21.41-39.2,35,0,14,16.4,28,41.32,36.57q3,1,6.11,1.91c-.68,2.75-1.28,5.44-1.77,8.06-4.73,24.89-1,44.66,10.71,51.43,12.13,7,32.49-.19,52.31-17.52,1.57-1.37,3.14-2.83,4.72-4.35q3.06,3,6.11,5.58c19.2,16.52,38.17,23.19,49.9,16.4,12.12-7,16.06-28.25,10.95-54.08-.4-2-.85-4-1.36-6,1.43-.42,2.83-.86,4.2-1.31,25.91-8.58,42.76-22.46,42.76-36.65,0-13.61-15.77-26.76-40.18-35.17Z" transform="translate(-0.75 -0.78)" style="fill:#53c1de"/>
<path d="M195.41,142.33c-1.24.41-2.51.8-3.8,1.19a226.77,226.77,0,0,0-11.44-28.63,225.75,225.75,0,0,0,11-28.21q3.47,1,6.71,2.12c20.91,7.2,33.67,17.84,33.67,26,0,8.74-13.78,20.08-36.14,27.49Zm-9.28,18.39c2.26,11.42,2.58,21.75,1.08,29.82-1.34,7.25-4.05,12.09-7.4,14-7.12,4.12-22.35-1.24-38.77-15.37-1.88-1.62-3.78-3.35-5.68-5.18A227.06,227.06,0,0,0,154.3,160a226,226,0,0,0,30.6-4.72q.69,2.79,1.23,5.47ZM92.28,203.85c-7,2.46-12.5,2.53-15.85.6-7.13-4.11-10.09-20-6.05-41.27.46-2.43,1-4.94,1.65-7.5a226.93,226.93,0,0,0,30.45,4.41,234,234,0,0,0,19.4,24c-1.45,1.4-2.88,2.72-4.31,4-8.77,7.66-17.55,13.1-25.29,15.83Zm-32.6-61.58c-11-3.76-20.11-8.66-26.35-14-5.61-4.8-8.43-9.56-8.43-13.43,0-8.23,12.26-18.72,32.72-25.85,2.48-.87,5.08-1.68,7.78-2.45a231.37,231.37,0,0,0,11,28.54A237,237,0,0,0,65.26,144c-1.92-.55-3.79-1.13-5.58-1.75ZM70.61,67.9c-4.25-21.7-1.43-38.07,5.67-42.18,7.56-4.37,24.27,1.87,41.89,17.51,1.13,1,2.26,2.05,3.39,3.13a231.93,231.93,0,0,0-19.25,23.82,236.7,236.7,0,0,0-30.15,4.68q-.89-3.54-1.55-7ZM168.08,92q-3.36-5.79-6.88-11.3c7.21.91,14.12,2.12,20.61,3.6-1.95,6.24-4.38,12.77-7.23,19.46q-3.08-5.83-6.5-11.76ZM128.33,53.26a207.77,207.77,0,0,1,13.3,16.05c-4.42-.21-8.9-.32-13.41-.32s-8.91.11-13.3.31c4.39-5.79,8.89-11.16,13.41-16ZM88.33,92Q85,97.85,82,103.72c-2.81-6.66-5.22-13.22-7.18-19.55,6.45-1.44,13.32-2.62,20.48-3.52Q91.7,86.2,88.33,92Zm7.13,57.68a204.36,204.36,0,0,1-20.82-3.35c2-6.44,4.45-13.14,7.32-20q3,5.87,6.41,11.7h0c2.28,3.95,4.66,7.82,7.09,11.6Zm33.14,27.39c-4.58-4.94-9.14-10.4-13.6-16.27q6.5.25,13.22.26,6.92,0,13.64-.31a206,206,0,0,1-13.26,16.32Zm46.07-51A206.94,206.94,0,0,1,182.26,146a205.64,205.64,0,0,1-21.08,3.6q3.51-5.58,6.93-11.5t6.56-12Zm-14.92,7.15c-3.53,6.12-7.16,12-10.84,17.49-6.7.48-13.63.72-20.69.72s-13.87-.22-20.46-.64c-3.83-5.59-7.53-11.46-11-17.52h0c-3.5-6-6.72-12.14-9.64-18.21C90,109,93.21,102.89,96.69,96.86h0c3.49-6,7.16-11.89,11-17.44,6.72-.51,13.61-.78,20.57-.78h0c7,0,13.9.27,20.61.78,3.74,5.52,7.39,11.34,10.89,17.39s6.8,12.18,9.74,18.13c-2.93,6-6.18,12.17-9.71,18.29ZM179.67,25.44c7.56,4.36,10.5,22,5.75,45-.3,1.48-.64,3-1,4.49a232,232,0,0,0-30.22-4.77,227,227,0,0,0-19.1-23.84q2.61-2.51,5.2-4.76C157,27.07,172.56,21.34,179.67,25.44Z" transform="translate(-0.75 -0.78)" style="fill:#fff"/>
<path d="M128.22,94.67A20.18,20.18,0,1,1,108,114.84a20.18,20.18,0,0,1,20.18-20.17" transform="translate(-0.75 -0.78)" style="fill:#53c1de"/>
</svg>