<svg xmlns="http://www.w3.org/2000/svg" viewBox="0 0 2500 2437.5" width="45" height="45" style="align-self: center;">
<title>xd</title>
<path d="M2057.3,2437.5H442.7C197.9,2437.5,0,2239.6,0,1994.8V442.7C0,197.9,197.9,0,442.7,0H2057.3C2302.1,0,2500,197.9,2500,442.7V1994.8C2500,2239.6,2302.1,2437.5,2057.3,2437.5Z" style="fill:#ff26be"/>
<path d="M2017.7,2333.3H482.3c-208.3,0-378.1-169.8-378.1-378.1V482.3C104.2,274,274,104.2,482.3,104.2H2016.7c209.4,0,378.1,169.8,378.1,378.1V1954.2c1,209.3-168.8,379.1-377.1,379.1Z" style="fill:#2e001f"/>
<path d="M988.5,1140.6,1280.2,1701c5.2,8.3,2.1,16.7-6.3,16.7H1092.6c-11.5,0-16.7-3.1-21.9-13.5-66.7-137.5-134.4-275-204.2-422.9h-2.1c-62.5,139.6-131.3,286.5-197.9,424-5.2,8.3-10.4,11.5-18.8,11.5H476c-10.4,0-11.5-8.3-6.2-14.6l285.4-543.8-276-550c-6.3-8.3,0-14.6,6.2-14.6H664.6c10.4,0,14.6,2.1,18.7,11.5C748.9,742.8,815.6,884.5,878.1,1023h2.1c60.4-137.5,127.1-280.2,191.7-416.7,5.2-8.3,8.3-13.5,18.8-13.5h167.7c8.3,0,11.5,6.3,6.3,14.6Zm342.8,169.8c0-242.7,161.5-432.3,417.7-432.3,21.9,0,33.3,0,54.2,2.1v-276a10.38,10.38,0,0,1,10.4-10.4h164.6c8.3,0,10.4,3.1,10.4,8.3v956.3c0,28.1,0,63.5,5.2,102.1,0,6.3-2.1,8.3-8.3,11.5a620.12,620.12,0,0,1-266.7,60.4c-226.1.9-387.6-138.6-387.5-422Zm471.8-266.6c-14.6-6.3-35.4-10.4-60.4-10.4-131.3,0-222.9,101-222.9,268.8,0,191.7,93.8,268.8,211.5,268.8,25,0,52.1-3.1,71.9-11.5V1043.8Z" style="fill:#ffd9f2"/>
</svg>